<?xml version="1.0" standalone="no"?><!DOCTYPE svg PUBLIC "-//W3C//DTD SVG 1.1//EN" "http://www.w3.org/Graphics/SVG/1.1/DTD/svg11.dtd"><svg t="1614518811659" class="icon" viewBox="0 0 1024 1024" version="1.1" xmlns="http://www.w3.org/2000/svg" p-id="4492" xmlns:xlink="http://www.w3.org/1999/xlink" width="200" height="200"><defs><style type="text/css"></style></defs><path d="M989 474c19.3 0 35-15.7 35-35V233.9c0-37.1-30.2-67.3-67.3-67.3h-538c-40.2 0-79.9 13.3-113.5 38.5l-265 221C14.7 447.5 0 478.8 0 512s14.7 64.5 40.2 85.9l266.5 222.2c32.1 24.1 71.9 37.3 112.1 37.3h538c37.1 0 67.3-30.2 67.3-67.3V688.4c0-19.3-15.6-35-35-35s-35 15.7-35 35v99.1H418.7c-25.1 0-50-8.3-68.7-22.3l-265-221c-9.6-8-15.1-19.7-15.1-32.2 0-12.5 5.5-24.2 15.1-32.2l263.7-220c20.1-15.1 45-23.4 70.1-23.4h535.3V439c0 19.4 15.6 35 34.9 35z" p-id="4493"></path><path d="M803.8 340.9c-13.7-13.7-35.8-13.7-49.4 0L632.7 462.6 511.1 340.9c-13.7-13.7-35.8-13.7-49.4 0-13.7 13.7-13.7 35.8 0 49.4L583.3 512 461.7 633.6c-13.7 13.7-13.7 35.8 0 49.4 6.8 6.8 15.8 10.2 24.7 10.2 8.9 0 17.9-3.4 24.7-10.2l121.6-121.6L754.3 683c6.8 6.8 15.8 10.2 24.7 10.2s17.9-3.4 24.7-10.2c13.7-13.7 13.7-35.8 0-49.4L682.1 512l121.6-121.6c13.7-13.7 13.7-35.8 0.1-49.5z" p-id="4494"></path></svg>