<?xml version="1.0" standalone="no"?><!DOCTYPE svg PUBLIC "-//W3C//DTD SVG 1.1//EN" "http://www.w3.org/Graphics/SVG/1.1/DTD/svg11.dtd"><svg t="1614681466759" class="icon" viewBox="0 0 1024 1024" version="1.1" xmlns="http://www.w3.org/2000/svg" p-id="2727" xmlns:xlink="http://www.w3.org/1999/xlink" width="200" height="200"><defs><style type="text/css"></style></defs><path d="M298.666667 981.333333c-72.533333 0-128-55.466667-128-128V388.266667l-25.6 4.266666c-21.333333 4.266667-42.666667-12.8-46.933334-34.133333-4.266667-25.6 8.533333-46.933333 34.133334-51.2L170.666667 298.666667h4.266666L298.666667 273.066667l-8.533334-42.666667c-12.8-68.266667 29.866667-132.266667 102.4-149.333333l166.4-34.133334c68.266667-12.8 136.533333 29.866667 149.333334 102.4l8.533333 42.666667 166.4-34.133333c21.333333-4.266667 46.933333 8.533333 51.2 34.133333 4.266667 21.333333-8.533333 46.933333-34.133333 51.2L256 371.2V853.333333c0 25.6 17.066667 42.666667 42.666667 42.666667h426.666666c25.6 0 42.666667-17.066667 42.666667-42.666667V384c0-25.6 17.066667-42.666667 42.666667-42.666667s42.666667 17.066667 42.666666 42.666667v469.333333c0 72.533333-55.466667 128-128 128H298.666667z m277.333333-849.066666l-170.666667 34.133333c-21.333333 4.266667-38.4 25.6-29.866666 51.2l8.533333 42.666667L635.733333 213.333333l-8.533333-42.666666c-4.266667-21.333333-21.333333-34.133333-42.666667-34.133334-4.266667-4.266667-8.533333-4.266667-8.533333-4.266666zM554.666667 768v-256c0-25.6 17.066667-42.666667 42.666666-42.666667s42.666667 17.066667 42.666667 42.666667v256c0 25.6-17.066667 42.666667-42.666667 42.666667s-42.666667-17.066667-42.666666-42.666667z m-170.666667 0v-256c0-25.6 17.066667-42.666667 42.666667-42.666667s42.666667 17.066667 42.666666 42.666667v256c0 25.6-17.066667 42.666667-42.666666 42.666667s-42.666667-17.066667-42.666667-42.666667z" p-id="2728"></path></svg>