<?xml version="1.0" standalone="no"?><!DOCTYPE svg PUBLIC "-//W3C//DTD SVG 1.1//EN" "http://www.w3.org/Graphics/SVG/1.1/DTD/svg11.dtd"><svg t="1614419797407" class="icon" viewBox="0 0 1024 1024" version="1.1" xmlns="http://www.w3.org/2000/svg" p-id="9688" xmlns:xlink="http://www.w3.org/1999/xlink" width="200" height="200"><defs><style type="text/css"></style></defs><path d="M553.6 996.544a81.92 81.92 0 0 1-57.6-23.68l-483.84-505.6c-14.72-15.36-28.16-33.28 49.28-353.28A97.92 97.92 0 0 1 139.52 39.744c318.08-53.76 332.8-41.6 347.52-26.24l483.2 505.6a92.16 92.16 0 0 1-12.16 128l-332.8 320a104.96 104.96 0 0 1-71.68 29.44z m-487.68-568.32l476.8 499.2a17.28 17.28 0 0 0 10.88 3.84 40.96 40.96 0 0 0 26.88-12.16l332.16-320c13.44-12.8 16.64-30.08 10.24-37.12l-477.44-497.28a1827.84 1827.84 0 0 0-294.4 39.68 32.64 32.64 0 0 0-26.24 24.96 1930.24 1930.24 0 0 0-58.88 298.88z" p-id="9689"></path><path d="M335.36 425.088a111.36 111.36 0 1 1 0-222.784 111.36 111.36 0 0 1 0 222.72z m0-156.16a45.44 45.44 0 1 0 0 90.88 45.44 45.44 0 0 0 0-90.88z" p-id="9690"></path></svg>